<?xml version="1.0" encoding="UTF-8" standalone="no"?>
<!DOCTYPE svg PUBLIC "-//W3C//DTD SVG 1.1//EN"
 "http://www.w3.org/Graphics/SVG/1.1/DTD/svg11.dtd">
<!-- Generated by graphviz version 2.40.1 (20161225.0304)
 -->
<!-- Title: dependencies Pages: 1 -->
<svg width="526pt" height="284pt"
 viewBox="0.00 0.00 526.00 284.00" xmlns="http://www.w3.org/2000/svg" xmlns:xlink="http://www.w3.org/1999/xlink">
<g id="graph0" class="graph" transform="scale(1 1) rotate(0) translate(4 280)">
<title>dependencies</title>
<polygon fill="#ffffff" stroke="transparent" points="-4,4 -4,-280 522,-280 522,4 -4,4"/>
<text text-anchor="start" x="238.0091" y="-42.4" font-family="sans-serif" font-weight="bold" font-size="14.00" fill="#000000">Legend</text>
<polygon fill="#ffffb3" stroke="transparent" points="25,-10 25,-30 45,-30 45,-10 25,-10"/>
<text text-anchor="start" x="48.629" y="-15.4" font-family="sans-serif" font-size="14.00" fill="#000000"> &#160;Declarations</text>
<polygon fill="#8dd3c7" stroke="transparent" points="138,-10 138,-30 158,-30 158,-10 138,-10"/>
<text text-anchor="start" x="161.7251" y="-15.4" font-family="sans-serif" font-size="14.00" fill="#000000"> &#160;Module</text>
<polygon fill="#80b1d3" stroke="transparent" points="224,-10 224,-30 244,-30 244,-10 224,-10"/>
<text text-anchor="start" x="247.7812" y="-15.4" font-family="sans-serif" font-size="14.00" fill="#000000"> &#160;Bootstrap</text>
<polygon fill="#fdb462" stroke="transparent" points="321,-10 321,-30 341,-30 341,-10 321,-10"/>
<text text-anchor="start" x="344.6732" y="-15.4" font-family="sans-serif" font-size="14.00" fill="#000000"> &#160;Providers</text>
<polygon fill="#fb8072" stroke="transparent" points="417,-10 417,-30 437,-30 437,-10 417,-10"/>
<text text-anchor="start" x="440.7258" y="-15.4" font-family="sans-serif" font-size="14.00" fill="#000000"> &#160;Exports</text>
<g id="clust1" class="cluster">
<title>cluster_CloukitTooltipModule</title>
<polygon fill="none" stroke="#000000" stroke-dasharray="1,5" points="8,-70 8,-268 510,-268 510,-70 8,-70"/>
</g>
<g id="clust2" class="cluster">
<title>cluster_CloukitTooltipModule_declarations</title>
<polygon fill="none" stroke="#000000" points="152,-78 152,-130 502,-130 502,-78 152,-78"/>
</g>
<g id="clust5" class="cluster">
<title>cluster_CloukitTooltipModule_imports</title>
<polygon fill="none" stroke="#000000" points="16,-78 16,-130 144,-130 144,-78 16,-78"/>
</g>
<g id="clust6" class="cluster">
<title>cluster_CloukitTooltipModule_exports</title>
<polygon fill="none" stroke="#000000" points="157,-208 157,-260 327,-260 327,-208 157,-208"/>
</g>
<!-- CloukitTooltipDirective -->
<g id="node1" class="node">
<title>CloukitTooltipDirective</title>
<polygon fill="#ffffb3" stroke="#000000" points="493.8159,-122 342.1841,-122 342.1841,-86 493.8159,-86 493.8159,-122"/>
<text text-anchor="middle" x="418" y="-99.8" font-family="Times,serif" font-size="14.00" fill="#000000">CloukitTooltipDirective</text>
</g>
<!-- CloukitTooltipModule -->
<g id="node3" class="node">
<title>CloukitTooltipModule</title>
<polygon fill="#8dd3c7" stroke="#000000" points="313.2828,-187 310.2828,-191 289.2828,-191 286.2828,-187 170.7172,-187 170.7172,-151 313.2828,-151 313.2828,-187"/>
<text text-anchor="middle" x="242" y="-164.8" font-family="Times,serif" font-size="14.00" fill="#000000">CloukitTooltipModule</text>
</g>
<!-- CloukitTooltipDirective&#45;&gt;CloukitTooltipModule -->
<g id="edge1" class="edge">
<title>CloukitTooltipDirective&#45;&gt;CloukitTooltipModule</title>
<path fill="none" stroke="#000000" d="M418,-122.1061C418,-141.3391 418,-169 418,-169 418,-169 323.3322,-169 323.3322,-169"/>
<polygon fill="#000000" stroke="#000000" points="323.3323,-165.5001 313.3322,-169 323.3322,-172.5001 323.3323,-165.5001"/>
</g>
<!-- CloukitTooltipComponent -->
<g id="node2" class="node">
<title>CloukitTooltipComponent</title>
<polygon fill="#ffffb3" stroke="#000000" points="324.0658,-122 159.9342,-122 159.9342,-86 324.0658,-86 324.0658,-122"/>
<text text-anchor="middle" x="242" y="-99.8" font-family="Times,serif" font-size="14.00" fill="#000000">CloukitTooltipComponent</text>
</g>
<!-- CloukitTooltipComponent&#45;&gt;CloukitTooltipModule -->
<g id="edge2" class="edge">
<title>CloukitTooltipComponent&#45;&gt;CloukitTooltipModule</title>
<path fill="none" stroke="#000000" d="M242,-122.1061C242,-122.1061 242,-140.991 242,-140.991"/>
<polygon fill="#000000" stroke="#000000" points="238.5001,-140.9909 242,-150.991 245.5001,-140.991 238.5001,-140.9909"/>
</g>
<!-- CloukitTooltipDirective  -->
<g id="node5" class="node">
<title>CloukitTooltipDirective </title>
<polygon fill="#fb8072" stroke="#000000" points="319.3157,-252 164.6843,-252 164.6843,-216 319.3157,-216 319.3157,-252"/>
<text text-anchor="middle" x="242" y="-229.8" font-family="Times,serif" font-size="14.00" fill="#000000">CloukitTooltipDirective </text>
</g>
<!-- CloukitTooltipModule&#45;&gt;CloukitTooltipDirective  -->
<g id="edge4" class="edge">
<title>CloukitTooltipModule&#45;&gt;CloukitTooltipDirective </title>
<path fill="none" stroke="#000000" stroke-dasharray="5,2" d="M242,-187.1061C242,-187.1061 242,-205.991 242,-205.991"/>
<polygon fill="#000000" stroke="#000000" points="238.5001,-205.9909 242,-215.991 245.5001,-205.991 238.5001,-205.9909"/>
</g>
<!-- CommonModule -->
<g id="node4" class="node">
<title>CommonModule</title>
<polygon fill="#8dd3c7" stroke="#000000" points="135.6681,-122 132.6681,-126 111.6681,-126 108.6681,-122 24.3319,-122 24.3319,-86 135.6681,-86 135.6681,-122"/>
<text text-anchor="middle" x="80" y="-99.8" font-family="Times,serif" font-size="14.00" fill="#000000">CommonModule</text>
</g>
<!-- CommonModule&#45;&gt;CloukitTooltipModule -->
<g id="edge3" class="edge">
<title>CommonModule&#45;&gt;CloukitTooltipModule</title>
<path fill="none" stroke="#000000" d="M80,-122.1061C80,-141.3391 80,-169 80,-169 80,-169 160.4729,-169 160.4729,-169"/>
<polygon fill="#000000" stroke="#000000" points="160.4729,-172.5001 170.4729,-169 160.4728,-165.5001 160.4729,-172.5001"/>
</g>
</g>
</svg>
