<?xml version="1.0" encoding="UTF-8" standalone="no"?>
<!DOCTYPE svg PUBLIC "-//W3C//DTD SVG 1.1//EN"
 "http://www.w3.org/Graphics/SVG/1.1/DTD/svg11.dtd">
<!-- Generated by graphviz version 2.40.1 (20161225.0304)
 -->
<!-- Title: dependencies Pages: 1 -->
<svg width="692pt" height="284pt"
 viewBox="0.00 0.00 692.00 284.00" xmlns="http://www.w3.org/2000/svg" xmlns:xlink="http://www.w3.org/1999/xlink">
<g id="graph0" class="graph" transform="scale(1 1) rotate(0) translate(4 280)">
<title>dependencies</title>
<polygon fill="#ffffff" stroke="transparent" points="-4,4 -4,-280 688,-280 688,4 -4,4"/>
<text text-anchor="start" x="321.0091" y="-42.4" font-family="sans-serif" font-weight="bold" font-size="14.00" fill="#000000">Legend</text>
<polygon fill="#ffffb3" stroke="transparent" points="108,-10 108,-30 128,-30 128,-10 108,-10"/>
<text text-anchor="start" x="131.629" y="-15.4" font-family="sans-serif" font-size="14.00" fill="#000000"> &#160;Declarations</text>
<polygon fill="#8dd3c7" stroke="transparent" points="221,-10 221,-30 241,-30 241,-10 221,-10"/>
<text text-anchor="start" x="244.7251" y="-15.4" font-family="sans-serif" font-size="14.00" fill="#000000"> &#160;Module</text>
<polygon fill="#80b1d3" stroke="transparent" points="307,-10 307,-30 327,-30 327,-10 307,-10"/>
<text text-anchor="start" x="330.7812" y="-15.4" font-family="sans-serif" font-size="14.00" fill="#000000"> &#160;Bootstrap</text>
<polygon fill="#fdb462" stroke="transparent" points="404,-10 404,-30 424,-30 424,-10 404,-10"/>
<text text-anchor="start" x="427.6732" y="-15.4" font-family="sans-serif" font-size="14.00" fill="#000000"> &#160;Providers</text>
<polygon fill="#fb8072" stroke="transparent" points="500,-10 500,-30 520,-30 520,-10 500,-10"/>
<text text-anchor="start" x="523.7258" y="-15.4" font-family="sans-serif" font-size="14.00" fill="#000000"> &#160;Exports</text>
<g id="clust1" class="cluster">
<title>cluster_CloukitTooltipModule</title>
<polygon fill="none" stroke="#000000" stroke-dasharray="1,5" points="8,-70 8,-268 676,-268 676,-70 8,-70"/>
</g>
<g id="clust2" class="cluster">
<title>cluster_CloukitTooltipModule_declarations</title>
<polygon fill="none" stroke="#000000" points="318,-78 318,-130 668,-130 668,-78 318,-78"/>
</g>
<g id="clust5" class="cluster">
<title>cluster_CloukitTooltipModule_imports</title>
<polygon fill="none" stroke="#000000" points="16,-78 16,-130 310,-130 310,-78 16,-78"/>
</g>
<g id="clust6" class="cluster">
<title>cluster_CloukitTooltipModule_exports</title>
<polygon fill="none" stroke="#000000" points="242,-208 242,-260 412,-260 412,-208 242,-208"/>
</g>
<!-- CloukitTooltipDirective -->
<g id="node1" class="node">
<title>CloukitTooltipDirective</title>
<polygon fill="#ffffb3" stroke="#000000" points="659.8159,-122 508.1841,-122 508.1841,-86 659.8159,-86 659.8159,-122"/>
<text text-anchor="middle" x="584" y="-99.8" font-family="Times,serif" font-size="14.00" fill="#000000">CloukitTooltipDirective</text>
</g>
<!-- CloukitTooltipModule -->
<g id="node3" class="node">
<title>CloukitTooltipModule</title>
<polygon fill="#8dd3c7" stroke="#000000" points="398.2828,-187 395.2828,-191 374.2828,-191 371.2828,-187 255.7172,-187 255.7172,-151 398.2828,-151 398.2828,-187"/>
<text text-anchor="middle" x="327" y="-164.8" font-family="Times,serif" font-size="14.00" fill="#000000">CloukitTooltipModule</text>
</g>
<!-- CloukitTooltipDirective&#45;&gt;CloukitTooltipModule -->
<g id="edge1" class="edge">
<title>CloukitTooltipDirective&#45;&gt;CloukitTooltipModule</title>
<path fill="none" stroke="#000000" d="M584,-122.1061C584,-141.3391 584,-169 584,-169 584,-169 408.5888,-169 408.5888,-169"/>
<polygon fill="#000000" stroke="#000000" points="408.5889,-165.5001 398.5888,-169 408.5888,-172.5001 408.5889,-165.5001"/>
</g>
<!-- CloukitTooltipComponent -->
<g id="node2" class="node">
<title>CloukitTooltipComponent</title>
<polygon fill="#ffffb3" stroke="#000000" points="490.0658,-122 325.9342,-122 325.9342,-86 490.0658,-86 490.0658,-122"/>
<text text-anchor="middle" x="408" y="-99.8" font-family="Times,serif" font-size="14.00" fill="#000000">CloukitTooltipComponent</text>
</g>
<!-- CloukitTooltipComponent&#45;&gt;CloukitTooltipModule -->
<g id="edge2" class="edge">
<title>CloukitTooltipComponent&#45;&gt;CloukitTooltipModule</title>
<path fill="none" stroke="#000000" d="M362.0544,-122.1061C362.0544,-122.1061 362.0544,-140.991 362.0544,-140.991"/>
<polygon fill="#000000" stroke="#000000" points="358.5544,-140.9909 362.0544,-150.991 365.5544,-140.991 358.5544,-140.9909"/>
</g>
<!-- CloukitTooltipDirective  -->
<g id="node6" class="node">
<title>CloukitTooltipDirective </title>
<polygon fill="#fb8072" stroke="#000000" points="404.3157,-252 249.6843,-252 249.6843,-216 404.3157,-216 404.3157,-252"/>
<text text-anchor="middle" x="327" y="-229.8" font-family="Times,serif" font-size="14.00" fill="#000000">CloukitTooltipDirective </text>
</g>
<!-- CloukitTooltipModule&#45;&gt;CloukitTooltipDirective  -->
<g id="edge5" class="edge">
<title>CloukitTooltipModule&#45;&gt;CloukitTooltipDirective </title>
<path fill="none" stroke="#000000" stroke-dasharray="5,2" d="M327,-187.1061C327,-187.1061 327,-205.991 327,-205.991"/>
<polygon fill="#000000" stroke="#000000" points="323.5001,-205.9909 327,-215.991 330.5001,-205.991 323.5001,-205.9909"/>
</g>
<!-- CommonModule -->
<g id="node4" class="node">
<title>CommonModule</title>
<polygon fill="#8dd3c7" stroke="#000000" points="301.6681,-122 298.6681,-126 277.6681,-126 274.6681,-122 190.3319,-122 190.3319,-86 301.6681,-86 301.6681,-122"/>
<text text-anchor="middle" x="246" y="-99.8" font-family="Times,serif" font-size="14.00" fill="#000000">CommonModule</text>
</g>
<!-- CommonModule&#45;&gt;CloukitTooltipModule -->
<g id="edge3" class="edge">
<title>CommonModule&#45;&gt;CloukitTooltipModule</title>
<path fill="none" stroke="#000000" d="M278.7213,-122.1061C278.7213,-122.1061 278.7213,-140.991 278.7213,-140.991"/>
<polygon fill="#000000" stroke="#000000" points="275.2213,-140.9909 278.7213,-150.991 282.2213,-140.991 275.2213,-140.9909"/>
</g>
<!-- CloukitDropoutModule -->
<g id="node5" class="node">
<title>CloukitDropoutModule</title>
<polygon fill="#8dd3c7" stroke="#000000" points="172.2162,-122 169.2162,-126 148.2162,-126 145.2162,-122 23.7838,-122 23.7838,-86 172.2162,-86 172.2162,-122"/>
<text text-anchor="middle" x="98" y="-99.8" font-family="Times,serif" font-size="14.00" fill="#000000">CloukitDropoutModule</text>
</g>
<!-- CloukitDropoutModule&#45;&gt;CloukitTooltipModule -->
<g id="edge4" class="edge">
<title>CloukitDropoutModule&#45;&gt;CloukitTooltipModule</title>
<path fill="none" stroke="#000000" d="M98,-122.1061C98,-141.3391 98,-169 98,-169 98,-169 245.4849,-169 245.4849,-169"/>
<polygon fill="#000000" stroke="#000000" points="245.485,-172.5001 255.4849,-169 245.4849,-165.5001 245.485,-172.5001"/>
</g>
</g>
</svg>
