<?xml version="1.0" encoding="UTF-8" standalone="no"?>
<!DOCTYPE svg PUBLIC "-//W3C//DTD SVG 1.1//EN"
 "http://www.w3.org/Graphics/SVG/1.1/DTD/svg11.dtd">
<!-- Generated by graphviz version 2.40.1 (20161225.0304)
 -->
<!-- Title: dependencies Pages: 1 -->
<svg width="793pt" height="284pt"
 viewBox="0.00 0.00 793.00 284.00" xmlns="http://www.w3.org/2000/svg" xmlns:xlink="http://www.w3.org/1999/xlink">
<g id="graph0" class="graph" transform="scale(1 1) rotate(0) translate(4 280)">
<title>dependencies</title>
<polygon fill="#ffffff" stroke="transparent" points="-4,4 -4,-280 789,-280 789,4 -4,4"/>
<text text-anchor="start" x="371.5091" y="-42.4" font-family="sans-serif" font-weight="bold" font-size="14.00" fill="#000000">Legend</text>
<polygon fill="#ffffb3" stroke="transparent" points="158.5,-10 158.5,-30 178.5,-30 178.5,-10 158.5,-10"/>
<text text-anchor="start" x="182.129" y="-15.4" font-family="sans-serif" font-size="14.00" fill="#000000"> &#160;Declarations</text>
<polygon fill="#8dd3c7" stroke="transparent" points="271.5,-10 271.5,-30 291.5,-30 291.5,-10 271.5,-10"/>
<text text-anchor="start" x="295.2251" y="-15.4" font-family="sans-serif" font-size="14.00" fill="#000000"> &#160;Module</text>
<polygon fill="#80b1d3" stroke="transparent" points="357.5,-10 357.5,-30 377.5,-30 377.5,-10 357.5,-10"/>
<text text-anchor="start" x="381.2812" y="-15.4" font-family="sans-serif" font-size="14.00" fill="#000000"> &#160;Bootstrap</text>
<polygon fill="#fdb462" stroke="transparent" points="454.5,-10 454.5,-30 474.5,-30 474.5,-10 454.5,-10"/>
<text text-anchor="start" x="478.1732" y="-15.4" font-family="sans-serif" font-size="14.00" fill="#000000"> &#160;Providers</text>
<polygon fill="#fb8072" stroke="transparent" points="550.5,-10 550.5,-30 570.5,-30 570.5,-10 550.5,-10"/>
<text text-anchor="start" x="574.2258" y="-15.4" font-family="sans-serif" font-size="14.00" fill="#000000"> &#160;Exports</text>
<g id="clust1" class="cluster">
<title>cluster_DemoModule</title>
<polygon fill="none" stroke="#000000" stroke-dasharray="1,5" points="8,-70 8,-268 777,-268 777,-70 8,-70"/>
</g>
<g id="clust2" class="cluster">
<title>cluster_DemoModule_declarations</title>
<polygon fill="none" stroke="#000000" points="637,-78 637,-130 769,-130 769,-78 637,-78"/>
</g>
<g id="clust4" class="cluster">
<title>cluster_DemoModule_imports</title>
<polygon fill="none" stroke="#000000" points="16,-78 16,-130 629,-130 629,-78 16,-78"/>
</g>
<g id="clust5" class="cluster">
<title>cluster_DemoModule_exports</title>
<polygon fill="none" stroke="#000000" points="353,-208 353,-260 489,-260 489,-208 353,-208"/>
</g>
<!-- DemoComponent -->
<g id="node1" class="node">
<title>DemoComponent</title>
<polygon fill="#ffffb3" stroke="#000000" points="760.5451,-122 645.4549,-122 645.4549,-86 760.5451,-86 760.5451,-122"/>
<text text-anchor="middle" x="703" y="-99.8" font-family="Times,serif" font-size="14.00" fill="#000000">DemoComponent</text>
</g>
<!-- DemoModule -->
<g id="node2" class="node">
<title>DemoModule</title>
<polygon fill="#8dd3c7" stroke="#000000" points="467.7619,-187 464.7619,-191 443.7619,-191 440.7619,-187 374.2381,-187 374.2381,-151 467.7619,-151 467.7619,-187"/>
<text text-anchor="middle" x="421" y="-164.8" font-family="Times,serif" font-size="14.00" fill="#000000">DemoModule</text>
</g>
<!-- DemoComponent&#45;&gt;DemoModule -->
<g id="edge1" class="edge">
<title>DemoComponent&#45;&gt;DemoModule</title>
<path fill="none" stroke="#000000" d="M703,-122.2843C703,-143.3211 703,-175 703,-175 703,-175 477.8831,-175 477.8831,-175"/>
<polygon fill="#000000" stroke="#000000" points="477.8832,-171.5001 467.8831,-175 477.8831,-178.5001 477.8832,-171.5001"/>
</g>
<!-- DemoComponent  -->
<g id="node7" class="node">
<title>DemoComponent </title>
<polygon fill="#fb8072" stroke="#000000" points="480.5442,-252 361.4558,-252 361.4558,-216 480.5442,-216 480.5442,-252"/>
<text text-anchor="middle" x="421" y="-229.8" font-family="Times,serif" font-size="14.00" fill="#000000">DemoComponent </text>
</g>
<!-- DemoModule&#45;&gt;DemoComponent  -->
<g id="edge6" class="edge">
<title>DemoModule&#45;&gt;DemoComponent </title>
<path fill="none" stroke="#000000" stroke-dasharray="5,2" d="M421,-187.1061C421,-187.1061 421,-205.991 421,-205.991"/>
<polygon fill="#000000" stroke="#000000" points="417.5001,-205.9909 421,-215.991 424.5001,-205.991 417.5001,-205.9909"/>
</g>
<!-- CommonModule -->
<g id="node3" class="node">
<title>CommonModule</title>
<polygon fill="#8dd3c7" stroke="#000000" points="620.6681,-122 617.6681,-126 596.6681,-126 593.6681,-122 509.3319,-122 509.3319,-86 620.6681,-86 620.6681,-122"/>
<text text-anchor="middle" x="565" y="-99.8" font-family="Times,serif" font-size="14.00" fill="#000000">CommonModule</text>
</g>
<!-- CommonModule&#45;&gt;DemoModule -->
<g id="edge2" class="edge">
<title>CommonModule&#45;&gt;DemoModule</title>
<path fill="none" stroke="#000000" d="M565,-122.0225C565,-139.3734 565,-163 565,-163 565,-163 478.151,-163 478.151,-163"/>
<polygon fill="#000000" stroke="#000000" points="478.151,-159.5001 468.151,-163 478.151,-166.5001 478.151,-159.5001"/>
</g>
<!-- CloukitThemeModule -->
<g id="node4" class="node">
<title>CloukitThemeModule</title>
<polygon fill="#8dd3c7" stroke="#000000" points="491.4313,-122 488.4313,-126 467.4313,-126 464.4313,-122 350.5687,-122 350.5687,-86 491.4313,-86 491.4313,-122"/>
<text text-anchor="middle" x="421" y="-99.8" font-family="Times,serif" font-size="14.00" fill="#000000">CloukitThemeModule</text>
</g>
<!-- CloukitThemeModule&#45;&gt;DemoModule -->
<g id="edge3" class="edge">
<title>CloukitThemeModule&#45;&gt;DemoModule</title>
<path fill="none" stroke="#000000" d="M421,-122.1061C421,-122.1061 421,-140.991 421,-140.991"/>
<polygon fill="#000000" stroke="#000000" points="417.5001,-140.9909 421,-150.991 424.5001,-140.991 417.5001,-140.9909"/>
</g>
<!-- CloukitTooltipModule -->
<g id="node5" class="node">
<title>CloukitTooltipModule</title>
<polygon fill="#8dd3c7" stroke="#000000" points="332.2828,-122 329.2828,-126 308.2828,-126 305.2828,-122 189.7172,-122 189.7172,-86 332.2828,-86 332.2828,-122"/>
<text text-anchor="middle" x="261" y="-99.8" font-family="Times,serif" font-size="14.00" fill="#000000">CloukitTooltipModule</text>
</g>
<!-- CloukitTooltipModule&#45;&gt;DemoModule -->
<g id="edge4" class="edge">
<title>CloukitTooltipModule&#45;&gt;DemoModule</title>
<path fill="none" stroke="#000000" d="M261,-122.0225C261,-139.3734 261,-163 261,-163 261,-163 363.8601,-163 363.8601,-163"/>
<polygon fill="#000000" stroke="#000000" points="363.8601,-166.5001 373.8601,-163 363.8601,-159.5001 363.8601,-166.5001"/>
</g>
<!-- CloukitDropoutModule -->
<g id="node6" class="node">
<title>CloukitDropoutModule</title>
<polygon fill="#8dd3c7" stroke="#000000" points="172.2162,-122 169.2162,-126 148.2162,-126 145.2162,-122 23.7838,-122 23.7838,-86 172.2162,-86 172.2162,-122"/>
<text text-anchor="middle" x="98" y="-99.8" font-family="Times,serif" font-size="14.00" fill="#000000">CloukitDropoutModule</text>
</g>
<!-- CloukitDropoutModule&#45;&gt;DemoModule -->
<g id="edge5" class="edge">
<title>CloukitDropoutModule&#45;&gt;DemoModule</title>
<path fill="none" stroke="#000000" d="M98,-122.2843C98,-143.3211 98,-175 98,-175 98,-175 364.033,-175 364.033,-175"/>
<polygon fill="#000000" stroke="#000000" points="364.0331,-178.5001 374.033,-175 364.033,-171.5001 364.0331,-178.5001"/>
</g>
</g>
</svg>
