<?xml version="1.0" encoding="UTF-8" standalone="no"?>
<!DOCTYPE svg PUBLIC "-//W3C//DTD SVG 1.1//EN"
 "http://www.w3.org/Graphics/SVG/1.1/DTD/svg11.dtd">
<!-- Generated by graphviz version 2.40.1 (20161225.0304)
 -->
<!-- Title: dependencies Pages: 1 -->
<svg width="716pt" height="355pt"
 viewBox="0.00 0.00 716.00 355.00" xmlns="http://www.w3.org/2000/svg" xmlns:xlink="http://www.w3.org/1999/xlink">
<g id="graph0" class="graph" transform="scale(1 1) rotate(0) translate(4 351)">
<title>dependencies</title>
<polygon fill="#ffffff" stroke="transparent" points="-4,4 -4,-351 712,-351 712,4 -4,4"/>
<text text-anchor="start" x="333.0091" y="-42.4" font-family="sans-serif" font-weight="bold" font-size="14.00" fill="#000000">Legend</text>
<polygon fill="#ffffb3" stroke="transparent" points="120,-10 120,-30 140,-30 140,-10 120,-10"/>
<text text-anchor="start" x="143.629" y="-15.4" font-family="sans-serif" font-size="14.00" fill="#000000"> &#160;Declarations</text>
<polygon fill="#8dd3c7" stroke="transparent" points="233,-10 233,-30 253,-30 253,-10 233,-10"/>
<text text-anchor="start" x="256.7251" y="-15.4" font-family="sans-serif" font-size="14.00" fill="#000000"> &#160;Module</text>
<polygon fill="#80b1d3" stroke="transparent" points="319,-10 319,-30 339,-30 339,-10 319,-10"/>
<text text-anchor="start" x="342.7812" y="-15.4" font-family="sans-serif" font-size="14.00" fill="#000000"> &#160;Bootstrap</text>
<polygon fill="#fdb462" stroke="transparent" points="416,-10 416,-30 436,-30 436,-10 416,-10"/>
<text text-anchor="start" x="439.6732" y="-15.4" font-family="sans-serif" font-size="14.00" fill="#000000"> &#160;Providers</text>
<polygon fill="#fb8072" stroke="transparent" points="512,-10 512,-30 532,-30 532,-10 512,-10"/>
<text text-anchor="start" x="535.7258" y="-15.4" font-family="sans-serif" font-size="14.00" fill="#000000"> &#160;Exports</text>
<g id="clust1" class="cluster">
<title>cluster_CloukitTooltipModule</title>
<polygon fill="none" stroke="#000000" stroke-dasharray="1,5" points="8,-70 8,-271 194,-271 194,-70 8,-70"/>
</g>
<g id="clust3" class="cluster">
<title>cluster_CloukitTooltipModule_imports</title>
<polygon fill="none" stroke="#000000" points="47,-78 47,-130 175,-130 175,-78 47,-78"/>
</g>
<g id="clust4" class="cluster">
<title>cluster_CloukitTooltipModule_exports</title>
<polygon fill="none" stroke="#000000" points="16,-211 16,-263 186,-263 186,-211 16,-211"/>
</g>
<g id="clust7" class="cluster">
<title>cluster_DemoModule</title>
<polygon fill="none" stroke="#000000" stroke-dasharray="1,5" points="212,-138 212,-339 700,-339 700,-138 212,-138"/>
</g>
<g id="clust9" class="cluster">
<title>cluster_DemoModule_imports</title>
<polygon fill="none" stroke="#000000" points="220,-146 220,-198 692,-198 692,-146 220,-146"/>
</g>
<g id="clust10" class="cluster">
<title>cluster_DemoModule_exports</title>
<polygon fill="none" stroke="#000000" points="226,-279 226,-331 362,-331 362,-279 226,-279"/>
</g>
<!-- CommonModule -->
<g id="node1" class="node">
<title>CommonModule</title>
<polygon fill="#8dd3c7" stroke="#000000" points="166.6681,-122 163.6681,-126 142.6681,-126 139.6681,-122 55.3319,-122 55.3319,-86 166.6681,-86 166.6681,-122"/>
<text text-anchor="middle" x="111" y="-99.8" font-family="Times,serif" font-size="14.00" fill="#000000">CommonModule</text>
</g>
<!-- CloukitTooltipModule -->
<g id="node2" class="node">
<title>CloukitTooltipModule</title>
<polygon fill="#8dd3c7" stroke="#000000" points="172.2828,-190 169.2828,-194 148.2828,-194 145.2828,-190 29.7172,-190 29.7172,-154 172.2828,-154 172.2828,-190"/>
<text text-anchor="middle" x="101" y="-167.8" font-family="Times,serif" font-size="14.00" fill="#000000">CloukitTooltipModule</text>
</g>
<!-- CommonModule&#45;&gt;CloukitTooltipModule -->
<g id="edge1" class="edge">
<title>CommonModule&#45;&gt;CloukitTooltipModule</title>
<path fill="none" stroke="#000000" d="M111,-122.2228C111,-122.2228 111,-143.7269 111,-143.7269"/>
<polygon fill="#000000" stroke="#000000" points="107.5001,-143.7269 111,-153.7269 114.5001,-143.727 107.5001,-143.7269"/>
</g>
<!-- DemoModule -->
<g id="node7" class="node">
<title>DemoModule</title>
<polygon fill="#8dd3c7" stroke="#000000" points="340.7619,-255 337.7619,-259 316.7619,-259 313.7619,-255 247.2381,-255 247.2381,-219 340.7619,-219 340.7619,-255"/>
<text text-anchor="middle" x="294" y="-232.8" font-family="Times,serif" font-size="14.00" fill="#000000">DemoModule</text>
</g>
<!-- CommonModule&#45;&gt;DemoModule -->
<g id="edge3" class="edge">
<title>CommonModule&#45;&gt;DemoModule</title>
<path fill="none" stroke="#000000" d="M166.8369,-104C189.9702,-104 211.5053,-104 211.5053,-104 211.5053,-104 211.5053,-231 211.5053,-231 211.5053,-231 236.9692,-231 236.9692,-231"/>
<polygon fill="#000000" stroke="#000000" points="236.9693,-234.5001 246.9692,-231 236.9692,-227.5001 236.9693,-234.5001"/>
</g>
<!-- CloukitTooltipDirective  -->
<g id="node3" class="node">
<title>CloukitTooltipDirective </title>
<polygon fill="#fb8072" stroke="#000000" points="178.3157,-255 23.6843,-255 23.6843,-219 178.3157,-219 178.3157,-255"/>
<text text-anchor="middle" x="101" y="-232.8" font-family="Times,serif" font-size="14.00" fill="#000000">CloukitTooltipDirective </text>
</g>
<!-- CloukitTooltipModule&#45;&gt;CloukitTooltipDirective  -->
<g id="edge2" class="edge">
<title>CloukitTooltipModule&#45;&gt;CloukitTooltipDirective </title>
<path fill="none" stroke="#000000" stroke-dasharray="5,2" d="M101,-190.1061C101,-190.1061 101,-208.991 101,-208.991"/>
<polygon fill="#000000" stroke="#000000" points="97.5001,-208.9909 101,-218.991 104.5001,-208.991 97.5001,-208.9909"/>
</g>
<!-- CloukitTooltipModule&#45;&gt;DemoModule -->
<g id="edge6" class="edge">
<title>CloukitTooltipModule&#45;&gt;DemoModule</title>
<path fill="none" stroke="#000000" d="M172.6901,-172C185.5503,-172 194.9565,-172 194.9565,-172 194.9565,-172 194.9565,-243 194.9565,-243 194.9565,-243 237.0887,-243 237.0887,-243"/>
<polygon fill="#000000" stroke="#000000" points="237.0887,-246.5001 247.0887,-243 237.0887,-239.5001 237.0887,-246.5001"/>
</g>
<!-- CloukitThemeModule -->
<g id="node4" class="node">
<title>CloukitThemeModule</title>
<polygon fill="#8dd3c7" stroke="#000000" points="684.4313,-190 681.4313,-194 660.4313,-194 657.4313,-190 543.5687,-190 543.5687,-154 684.4313,-154 684.4313,-190"/>
<text text-anchor="middle" x="614" y="-167.8" font-family="Times,serif" font-size="14.00" fill="#000000">CloukitThemeModule</text>
</g>
<!-- CloukitThemeModule&#45;&gt;DemoModule -->
<g id="edge4" class="edge">
<title>CloukitThemeModule&#45;&gt;DemoModule</title>
<path fill="none" stroke="#000000" d="M614,-190.2843C614,-211.3211 614,-243 614,-243 614,-243 350.8735,-243 350.8735,-243"/>
<polygon fill="#000000" stroke="#000000" points="350.8735,-239.5001 340.8735,-243 350.8734,-246.5001 350.8735,-239.5001"/>
</g>
<!-- CloukitDropoutModule -->
<g id="node5" class="node">
<title>CloukitDropoutModule</title>
<polygon fill="#8dd3c7" stroke="#000000" points="526.2162,-190 523.2162,-194 502.2162,-194 499.2162,-190 377.7838,-190 377.7838,-154 526.2162,-154 526.2162,-190"/>
<text text-anchor="middle" x="452" y="-167.8" font-family="Times,serif" font-size="14.00" fill="#000000">CloukitDropoutModule</text>
</g>
<!-- CloukitDropoutModule&#45;&gt;DemoModule -->
<g id="edge5" class="edge">
<title>CloukitDropoutModule&#45;&gt;DemoModule</title>
<path fill="none" stroke="#000000" d="M452,-190.0225C452,-207.3734 452,-231 452,-231 452,-231 350.9774,-231 350.9774,-231"/>
<polygon fill="#000000" stroke="#000000" points="350.9775,-227.5001 340.9774,-231 350.9774,-234.5001 350.9775,-227.5001"/>
</g>
<!-- CloukitStoryModule -->
<g id="node6" class="node">
<title>CloukitStoryModule</title>
<polygon fill="#8dd3c7" stroke="#000000" points="359.892,-190 356.892,-194 335.892,-194 332.892,-190 228.108,-190 228.108,-154 359.892,-154 359.892,-190"/>
<text text-anchor="middle" x="294" y="-167.8" font-family="Times,serif" font-size="14.00" fill="#000000">CloukitStoryModule</text>
</g>
<!-- CloukitStoryModule&#45;&gt;DemoModule -->
<g id="edge7" class="edge">
<title>CloukitStoryModule&#45;&gt;DemoModule</title>
<path fill="none" stroke="#000000" d="M294,-190.1061C294,-190.1061 294,-208.991 294,-208.991"/>
<polygon fill="#000000" stroke="#000000" points="290.5001,-208.9909 294,-218.991 297.5001,-208.991 290.5001,-208.9909"/>
</g>
<!-- DemoComponent  -->
<g id="node8" class="node">
<title>DemoComponent </title>
<polygon fill="#fb8072" stroke="#000000" points="353.5442,-323 234.4558,-323 234.4558,-287 353.5442,-287 353.5442,-323"/>
<text text-anchor="middle" x="294" y="-300.8" font-family="Times,serif" font-size="14.00" fill="#000000">DemoComponent </text>
</g>
<!-- DemoModule&#45;&gt;DemoComponent  -->
<g id="edge8" class="edge">
<title>DemoModule&#45;&gt;DemoComponent </title>
<path fill="none" stroke="#000000" stroke-dasharray="5,2" d="M294,-255.2228C294,-255.2228 294,-276.7269 294,-276.7269"/>
<polygon fill="#000000" stroke="#000000" points="290.5001,-276.7269 294,-286.7269 297.5001,-276.727 290.5001,-276.7269"/>
</g>
</g>
</svg>
