<?xml version="1.0" encoding="UTF-8" standalone="no"?>
<!DOCTYPE svg PUBLIC "-//W3C//DTD SVG 1.1//EN"
 "http://www.w3.org/Graphics/SVG/1.1/DTD/svg11.dtd">
<!-- Generated by graphviz version 2.40.1 (20161225.0304)
 -->
<!-- Title: dependencies Pages: 1 -->
<svg width="504pt" height="284pt"
 viewBox="0.00 0.00 504.00 284.00" xmlns="http://www.w3.org/2000/svg" xmlns:xlink="http://www.w3.org/1999/xlink">
<g id="graph0" class="graph" transform="scale(1 1) rotate(0) translate(4 280)">
<title>dependencies</title>
<polygon fill="#ffffff" stroke="transparent" points="-4,4 -4,-280 500,-280 500,4 -4,4"/>
<text text-anchor="start" x="227.0091" y="-42.4" font-family="sans-serif" font-weight="bold" font-size="14.00" fill="#000000">Legend</text>
<polygon fill="#ffffb3" stroke="transparent" points="14,-10 14,-30 34,-30 34,-10 14,-10"/>
<text text-anchor="start" x="37.629" y="-15.4" font-family="sans-serif" font-size="14.00" fill="#000000"> &#160;Declarations</text>
<polygon fill="#8dd3c7" stroke="transparent" points="127,-10 127,-30 147,-30 147,-10 127,-10"/>
<text text-anchor="start" x="150.7251" y="-15.4" font-family="sans-serif" font-size="14.00" fill="#000000"> &#160;Module</text>
<polygon fill="#80b1d3" stroke="transparent" points="213,-10 213,-30 233,-30 233,-10 213,-10"/>
<text text-anchor="start" x="236.7812" y="-15.4" font-family="sans-serif" font-size="14.00" fill="#000000"> &#160;Bootstrap</text>
<polygon fill="#fdb462" stroke="transparent" points="310,-10 310,-30 330,-30 330,-10 310,-10"/>
<text text-anchor="start" x="333.6732" y="-15.4" font-family="sans-serif" font-size="14.00" fill="#000000"> &#160;Providers</text>
<polygon fill="#fb8072" stroke="transparent" points="406,-10 406,-30 426,-30 426,-10 406,-10"/>
<text text-anchor="start" x="429.7258" y="-15.4" font-family="sans-serif" font-size="14.00" fill="#000000"> &#160;Exports</text>
<g id="clust1" class="cluster">
<title>cluster_CloukitTooltipModule</title>
<polygon fill="none" stroke="#000000" stroke-dasharray="1,5" points="65,-70 65,-268 431,-268 431,-70 65,-70"/>
</g>
<g id="clust2" class="cluster">
<title>cluster_CloukitTooltipModule_declarations</title>
<polygon fill="none" stroke="#000000" points="73,-78 73,-130 423,-130 423,-78 73,-78"/>
</g>
<g id="clust6" class="cluster">
<title>cluster_CloukitTooltipModule_exports</title>
<polygon fill="none" stroke="#000000" points="165,-208 165,-260 335,-260 335,-208 165,-208"/>
</g>
<!-- CloukitTooltipDirective -->
<g id="node1" class="node">
<title>CloukitTooltipDirective</title>
<polygon fill="#ffffb3" stroke="#000000" points="414.8159,-122 263.1841,-122 263.1841,-86 414.8159,-86 414.8159,-122"/>
<text text-anchor="middle" x="339" y="-99.8" font-family="Times,serif" font-size="14.00" fill="#000000">CloukitTooltipDirective</text>
</g>
<!-- CloukitTooltipModule -->
<g id="node3" class="node">
<title>CloukitTooltipModule</title>
<polygon fill="#8dd3c7" stroke="#000000" points="321.2828,-187 318.2828,-191 297.2828,-191 294.2828,-187 178.7172,-187 178.7172,-151 321.2828,-151 321.2828,-187"/>
<text text-anchor="middle" x="250" y="-164.8" font-family="Times,serif" font-size="14.00" fill="#000000">CloukitTooltipModule</text>
</g>
<!-- CloukitTooltipDirective&#45;&gt;CloukitTooltipModule -->
<g id="edge1" class="edge">
<title>CloukitTooltipDirective&#45;&gt;CloukitTooltipModule</title>
<path fill="none" stroke="#000000" d="M292.3668,-122.1061C292.3668,-122.1061 292.3668,-140.991 292.3668,-140.991"/>
<polygon fill="#000000" stroke="#000000" points="288.8668,-140.9909 292.3668,-150.991 295.8668,-140.991 288.8668,-140.9909"/>
</g>
<!-- CloukitTooltipComponent -->
<g id="node2" class="node">
<title>CloukitTooltipComponent</title>
<polygon fill="#ffffb3" stroke="#000000" points="245.0658,-122 80.9342,-122 80.9342,-86 245.0658,-86 245.0658,-122"/>
<text text-anchor="middle" x="163" y="-99.8" font-family="Times,serif" font-size="14.00" fill="#000000">CloukitTooltipComponent</text>
</g>
<!-- CloukitTooltipComponent&#45;&gt;CloukitTooltipModule -->
<g id="edge2" class="edge">
<title>CloukitTooltipComponent&#45;&gt;CloukitTooltipModule</title>
<path fill="none" stroke="#000000" d="M211.9457,-122.1061C211.9457,-122.1061 211.9457,-140.991 211.9457,-140.991"/>
<polygon fill="#000000" stroke="#000000" points="208.4457,-140.9909 211.9457,-150.991 215.4457,-140.991 208.4457,-140.9909"/>
</g>
<!-- CloukitTooltipDirective  -->
<g id="node4" class="node">
<title>CloukitTooltipDirective </title>
<polygon fill="#fb8072" stroke="#000000" points="327.3157,-252 172.6843,-252 172.6843,-216 327.3157,-216 327.3157,-252"/>
<text text-anchor="middle" x="250" y="-229.8" font-family="Times,serif" font-size="14.00" fill="#000000">CloukitTooltipDirective </text>
</g>
<!-- CloukitTooltipModule&#45;&gt;CloukitTooltipDirective  -->
<g id="edge3" class="edge">
<title>CloukitTooltipModule&#45;&gt;CloukitTooltipDirective </title>
<path fill="none" stroke="#000000" stroke-dasharray="5,2" d="M250,-187.1061C250,-187.1061 250,-205.991 250,-205.991"/>
<polygon fill="#000000" stroke="#000000" points="246.5001,-205.9909 250,-215.991 253.5001,-205.991 246.5001,-205.9909"/>
</g>
</g>
</svg>
