<?xml version="1.0" encoding="UTF-8" standalone="no"?>
<!DOCTYPE svg PUBLIC "-//W3C//DTD SVG 1.1//EN"
 "http://www.w3.org/Graphics/SVG/1.1/DTD/svg11.dtd">
<!-- Generated by graphviz version 2.40.1 (20161225.0304)
 -->
<!-- Title: dependencies Pages: 1 -->
<svg width="634pt" height="284pt"
 viewBox="0.00 0.00 634.00 284.00" xmlns="http://www.w3.org/2000/svg" xmlns:xlink="http://www.w3.org/1999/xlink">
<g id="graph0" class="graph" transform="scale(1 1) rotate(0) translate(4 280)">
<title>dependencies</title>
<polygon fill="#ffffff" stroke="transparent" points="-4,4 -4,-280 630,-280 630,4 -4,4"/>
<text text-anchor="start" x="292.0091" y="-42.4" font-family="sans-serif" font-weight="bold" font-size="14.00" fill="#000000">Legend</text>
<polygon fill="#ffffb3" stroke="transparent" points="79,-10 79,-30 99,-30 99,-10 79,-10"/>
<text text-anchor="start" x="102.629" y="-15.4" font-family="sans-serif" font-size="14.00" fill="#000000"> &#160;Declarations</text>
<polygon fill="#8dd3c7" stroke="transparent" points="192,-10 192,-30 212,-30 212,-10 192,-10"/>
<text text-anchor="start" x="215.7251" y="-15.4" font-family="sans-serif" font-size="14.00" fill="#000000"> &#160;Module</text>
<polygon fill="#80b1d3" stroke="transparent" points="278,-10 278,-30 298,-30 298,-10 278,-10"/>
<text text-anchor="start" x="301.7812" y="-15.4" font-family="sans-serif" font-size="14.00" fill="#000000"> &#160;Bootstrap</text>
<polygon fill="#fdb462" stroke="transparent" points="375,-10 375,-30 395,-30 395,-10 375,-10"/>
<text text-anchor="start" x="398.6732" y="-15.4" font-family="sans-serif" font-size="14.00" fill="#000000"> &#160;Providers</text>
<polygon fill="#fb8072" stroke="transparent" points="471,-10 471,-30 491,-30 491,-10 471,-10"/>
<text text-anchor="start" x="494.7258" y="-15.4" font-family="sans-serif" font-size="14.00" fill="#000000"> &#160;Exports</text>
<g id="clust1" class="cluster">
<title>cluster_DemoModule</title>
<polygon fill="none" stroke="#000000" stroke-dasharray="1,5" points="8,-70 8,-268 618,-268 618,-70 8,-70"/>
</g>
<g id="clust2" class="cluster">
<title>cluster_DemoModule_declarations</title>
<polygon fill="none" stroke="#000000" points="478,-78 478,-130 610,-130 610,-78 478,-78"/>
</g>
<g id="clust4" class="cluster">
<title>cluster_DemoModule_imports</title>
<polygon fill="none" stroke="#000000" points="16,-78 16,-130 470,-130 470,-78 16,-78"/>
</g>
<g id="clust5" class="cluster">
<title>cluster_DemoModule_exports</title>
<polygon fill="none" stroke="#000000" points="265,-208 265,-260 401,-260 401,-208 265,-208"/>
</g>
<!-- DemoComponent -->
<g id="node1" class="node">
<title>DemoComponent</title>
<polygon fill="#ffffb3" stroke="#000000" points="601.5451,-122 486.4549,-122 486.4549,-86 601.5451,-86 601.5451,-122"/>
<text text-anchor="middle" x="544" y="-99.8" font-family="Times,serif" font-size="14.00" fill="#000000">DemoComponent</text>
</g>
<!-- DemoModule -->
<g id="node2" class="node">
<title>DemoModule</title>
<polygon fill="#8dd3c7" stroke="#000000" points="379.7619,-187 376.7619,-191 355.7619,-191 352.7619,-187 286.2381,-187 286.2381,-151 379.7619,-151 379.7619,-187"/>
<text text-anchor="middle" x="333" y="-164.8" font-family="Times,serif" font-size="14.00" fill="#000000">DemoModule</text>
</g>
<!-- DemoComponent&#45;&gt;DemoModule -->
<g id="edge1" class="edge">
<title>DemoComponent&#45;&gt;DemoModule</title>
<path fill="none" stroke="#000000" d="M544,-122.1061C544,-141.3391 544,-169 544,-169 544,-169 389.8277,-169 389.8277,-169"/>
<polygon fill="#000000" stroke="#000000" points="389.8278,-165.5001 379.8277,-169 389.8277,-172.5001 389.8278,-165.5001"/>
</g>
<!-- DemoComponent  -->
<g id="node6" class="node">
<title>DemoComponent </title>
<polygon fill="#fb8072" stroke="#000000" points="392.5442,-252 273.4558,-252 273.4558,-216 392.5442,-216 392.5442,-252"/>
<text text-anchor="middle" x="333" y="-229.8" font-family="Times,serif" font-size="14.00" fill="#000000">DemoComponent </text>
</g>
<!-- DemoModule&#45;&gt;DemoComponent  -->
<g id="edge5" class="edge">
<title>DemoModule&#45;&gt;DemoComponent </title>
<path fill="none" stroke="#000000" stroke-dasharray="5,2" d="M333,-187.1061C333,-187.1061 333,-205.991 333,-205.991"/>
<polygon fill="#000000" stroke="#000000" points="329.5001,-205.9909 333,-215.991 336.5001,-205.991 329.5001,-205.9909"/>
</g>
<!-- CommonModule -->
<g id="node3" class="node">
<title>CommonModule</title>
<polygon fill="#8dd3c7" stroke="#000000" points="461.6681,-122 458.6681,-126 437.6681,-126 434.6681,-122 350.3319,-122 350.3319,-86 461.6681,-86 461.6681,-122"/>
<text text-anchor="middle" x="406" y="-99.8" font-family="Times,serif" font-size="14.00" fill="#000000">CommonModule</text>
</g>
<!-- CommonModule&#45;&gt;DemoModule -->
<g id="edge2" class="edge">
<title>CommonModule&#45;&gt;DemoModule</title>
<path fill="none" stroke="#000000" d="M365.0235,-122.1061C365.0235,-122.1061 365.0235,-140.991 365.0235,-140.991"/>
<polygon fill="#000000" stroke="#000000" points="361.5236,-140.9909 365.0235,-150.991 368.5236,-140.991 361.5236,-140.9909"/>
</g>
<!-- CloukitTooltipModule -->
<g id="node4" class="node">
<title>CloukitTooltipModule</title>
<polygon fill="#8dd3c7" stroke="#000000" points="332.2828,-122 329.2828,-126 308.2828,-126 305.2828,-122 189.7172,-122 189.7172,-86 332.2828,-86 332.2828,-122"/>
<text text-anchor="middle" x="261" y="-99.8" font-family="Times,serif" font-size="14.00" fill="#000000">CloukitTooltipModule</text>
</g>
<!-- CloukitTooltipModule&#45;&gt;DemoModule -->
<g id="edge3" class="edge">
<title>CloukitTooltipModule&#45;&gt;DemoModule</title>
<path fill="none" stroke="#000000" d="M309.2553,-122.1061C309.2553,-122.1061 309.2553,-140.991 309.2553,-140.991"/>
<polygon fill="#000000" stroke="#000000" points="305.7553,-140.9909 309.2553,-150.991 312.7553,-140.991 305.7553,-140.9909"/>
</g>
<!-- CloukitDropoutModule -->
<g id="node5" class="node">
<title>CloukitDropoutModule</title>
<polygon fill="#8dd3c7" stroke="#000000" points="172.2162,-122 169.2162,-126 148.2162,-126 145.2162,-122 23.7838,-122 23.7838,-86 172.2162,-86 172.2162,-122"/>
<text text-anchor="middle" x="98" y="-99.8" font-family="Times,serif" font-size="14.00" fill="#000000">CloukitDropoutModule</text>
</g>
<!-- CloukitDropoutModule&#45;&gt;DemoModule -->
<g id="edge4" class="edge">
<title>CloukitDropoutModule&#45;&gt;DemoModule</title>
<path fill="none" stroke="#000000" d="M98,-122.1061C98,-141.3391 98,-169 98,-169 98,-169 276.009,-169 276.009,-169"/>
<polygon fill="#000000" stroke="#000000" points="276.0091,-172.5001 286.009,-169 276.009,-165.5001 276.0091,-172.5001"/>
</g>
</g>
</svg>
