<?xml version="1.0" encoding="UTF-8" standalone="no"?>
<!DOCTYPE svg PUBLIC "-//W3C//DTD SVG 1.1//EN"
 "http://www.w3.org/Graphics/SVG/1.1/DTD/svg11.dtd">
<!-- Generated by graphviz version 2.40.1 (20161225.0304)
 -->
<!-- Title: dependencies Pages: 1 -->
<svg width="1231pt" height="284pt"
 viewBox="0.00 0.00 1231.00 284.00" xmlns="http://www.w3.org/2000/svg" xmlns:xlink="http://www.w3.org/1999/xlink">
<g id="graph0" class="graph" transform="scale(1 1) rotate(0) translate(4 280)">
<title>dependencies</title>
<polygon fill="#ffffff" stroke="transparent" points="-4,4 -4,-280 1227,-280 1227,4 -4,4"/>
<text text-anchor="start" x="590.5091" y="-42.4" font-family="sans-serif" font-weight="bold" font-size="14.00" fill="#000000">Legend</text>
<polygon fill="#ffffb3" stroke="transparent" points="377.5,-10 377.5,-30 397.5,-30 397.5,-10 377.5,-10"/>
<text text-anchor="start" x="401.129" y="-15.4" font-family="sans-serif" font-size="14.00" fill="#000000"> &#160;Declarations</text>
<polygon fill="#8dd3c7" stroke="transparent" points="490.5,-10 490.5,-30 510.5,-30 510.5,-10 490.5,-10"/>
<text text-anchor="start" x="514.2251" y="-15.4" font-family="sans-serif" font-size="14.00" fill="#000000"> &#160;Module</text>
<polygon fill="#80b1d3" stroke="transparent" points="576.5,-10 576.5,-30 596.5,-30 596.5,-10 576.5,-10"/>
<text text-anchor="start" x="600.2812" y="-15.4" font-family="sans-serif" font-size="14.00" fill="#000000"> &#160;Bootstrap</text>
<polygon fill="#fdb462" stroke="transparent" points="673.5,-10 673.5,-30 693.5,-30 693.5,-10 673.5,-10"/>
<text text-anchor="start" x="697.1732" y="-15.4" font-family="sans-serif" font-size="14.00" fill="#000000"> &#160;Providers</text>
<polygon fill="#fb8072" stroke="transparent" points="769.5,-10 769.5,-30 789.5,-30 789.5,-10 769.5,-10"/>
<text text-anchor="start" x="793.2258" y="-15.4" font-family="sans-serif" font-size="14.00" fill="#000000"> &#160;Exports</text>
<g id="clust1" class="cluster">
<title>cluster_DemoModule</title>
<polygon fill="none" stroke="#000000" stroke-dasharray="1,5" points="8,-70 8,-268 1215,-268 1215,-70 8,-70"/>
</g>
<g id="clust2" class="cluster">
<title>cluster_DemoModule_declarations</title>
<polygon fill="none" stroke="#000000" points="787,-78 787,-130 1207,-130 1207,-78 787,-78"/>
</g>
<g id="clust6" class="cluster">
<title>cluster_DemoModule_imports</title>
<polygon fill="none" stroke="#000000" points="16,-78 16,-130 779,-130 779,-78 16,-78"/>
</g>
<g id="clust7" class="cluster">
<title>cluster_DemoModule_exports</title>
<polygon fill="none" stroke="#000000" points="575,-208 575,-260 711,-260 711,-208 575,-208"/>
</g>
<!-- DemoComponent -->
<g id="node1" class="node">
<title>DemoComponent</title>
<polygon fill="#ffffb3" stroke="#000000" points="1198.5451,-122 1083.4549,-122 1083.4549,-86 1198.5451,-86 1198.5451,-122"/>
<text text-anchor="middle" x="1141" y="-99.8" font-family="Times,serif" font-size="14.00" fill="#000000">DemoComponent</text>
</g>
<!-- DemoModule -->
<g id="node4" class="node">
<title>DemoModule</title>
<polygon fill="#8dd3c7" stroke="#000000" points="689.7619,-187 686.7619,-191 665.7619,-191 662.7619,-187 596.2381,-187 596.2381,-151 689.7619,-151 689.7619,-187"/>
<text text-anchor="middle" x="643" y="-164.8" font-family="Times,serif" font-size="14.00" fill="#000000">DemoModule</text>
</g>
<!-- DemoComponent&#45;&gt;DemoModule -->
<g id="edge1" class="edge">
<title>DemoComponent&#45;&gt;DemoModule</title>
<path fill="none" stroke="#000000" d="M1141,-122.2921C1141,-144.2057 1141,-178 1141,-178 1141,-178 699.8506,-178 699.8506,-178"/>
<polygon fill="#000000" stroke="#000000" points="699.8507,-174.5001 689.8506,-178 699.8506,-181.5001 699.8507,-174.5001"/>
</g>
<!-- Story00Component -->
<g id="node2" class="node">
<title>Story00Component</title>
<polygon fill="#ffffb3" stroke="#000000" points="1064.6666,-122 939.3334,-122 939.3334,-86 1064.6666,-86 1064.6666,-122"/>
<text text-anchor="middle" x="1002" y="-99.8" font-family="Times,serif" font-size="14.00" fill="#000000">Story00Component</text>
</g>
<!-- Story00Component&#45;&gt;DemoModule -->
<g id="edge2" class="edge">
<title>Story00Component&#45;&gt;DemoModule</title>
<path fill="none" stroke="#000000" d="M1002,-122.1061C1002,-141.3391 1002,-169 1002,-169 1002,-169 699.933,-169 699.933,-169"/>
<polygon fill="#000000" stroke="#000000" points="699.933,-165.5001 689.933,-169 699.9329,-172.5001 699.933,-165.5001"/>
</g>
<!-- Story01Component -->
<g id="node3" class="node">
<title>Story01Component</title>
<polygon fill="#ffffb3" stroke="#000000" points="920.6666,-122 795.3334,-122 795.3334,-86 920.6666,-86 920.6666,-122"/>
<text text-anchor="middle" x="858" y="-99.8" font-family="Times,serif" font-size="14.00" fill="#000000">Story01Component</text>
</g>
<!-- Story01Component&#45;&gt;DemoModule -->
<g id="edge3" class="edge">
<title>Story01Component&#45;&gt;DemoModule</title>
<path fill="none" stroke="#000000" d="M858,-122.027C858,-138.3976 858,-160 858,-160 858,-160 699.917,-160 699.917,-160"/>
<polygon fill="#000000" stroke="#000000" points="699.917,-156.5001 689.917,-160 699.917,-163.5001 699.917,-156.5001"/>
</g>
<!-- DemoComponent  -->
<g id="node10" class="node">
<title>DemoComponent </title>
<polygon fill="#fb8072" stroke="#000000" points="702.5442,-252 583.4558,-252 583.4558,-216 702.5442,-216 702.5442,-252"/>
<text text-anchor="middle" x="643" y="-229.8" font-family="Times,serif" font-size="14.00" fill="#000000">DemoComponent </text>
</g>
<!-- DemoModule&#45;&gt;DemoComponent  -->
<g id="edge9" class="edge">
<title>DemoModule&#45;&gt;DemoComponent </title>
<path fill="none" stroke="#000000" stroke-dasharray="5,2" d="M643,-187.1061C643,-187.1061 643,-205.991 643,-205.991"/>
<polygon fill="#000000" stroke="#000000" points="639.5001,-205.9909 643,-215.991 646.5001,-205.991 639.5001,-205.9909"/>
</g>
<!-- CommonModule -->
<g id="node5" class="node">
<title>CommonModule</title>
<polygon fill="#8dd3c7" stroke="#000000" points="770.6681,-122 767.6681,-126 746.6681,-126 743.6681,-122 659.3319,-122 659.3319,-86 770.6681,-86 770.6681,-122"/>
<text text-anchor="middle" x="715" y="-99.8" font-family="Times,serif" font-size="14.00" fill="#000000">CommonModule</text>
</g>
<!-- CommonModule&#45;&gt;DemoModule -->
<g id="edge4" class="edge">
<title>CommonModule&#45;&gt;DemoModule</title>
<path fill="none" stroke="#000000" d="M674.5235,-122.1061C674.5235,-122.1061 674.5235,-140.991 674.5235,-140.991"/>
<polygon fill="#000000" stroke="#000000" points="671.0236,-140.9909 674.5235,-150.991 678.0236,-140.991 671.0236,-140.9909"/>
</g>
<!-- CloukitThemeModule -->
<g id="node6" class="node">
<title>CloukitThemeModule</title>
<polygon fill="#8dd3c7" stroke="#000000" points="641.4313,-122 638.4313,-126 617.4313,-126 614.4313,-122 500.5687,-122 500.5687,-86 641.4313,-86 641.4313,-122"/>
<text text-anchor="middle" x="571" y="-99.8" font-family="Times,serif" font-size="14.00" fill="#000000">CloukitThemeModule</text>
</g>
<!-- CloukitThemeModule&#45;&gt;DemoModule -->
<g id="edge5" class="edge">
<title>CloukitThemeModule&#45;&gt;DemoModule</title>
<path fill="none" stroke="#000000" d="M618.6673,-122.1061C618.6673,-122.1061 618.6673,-140.991 618.6673,-140.991"/>
<polygon fill="#000000" stroke="#000000" points="615.1673,-140.9909 618.6673,-150.991 622.1673,-140.991 615.1673,-140.9909"/>
</g>
<!-- CloukitTooltipModule -->
<g id="node7" class="node">
<title>CloukitTooltipModule</title>
<polygon fill="#8dd3c7" stroke="#000000" points="482.2828,-122 479.2828,-126 458.2828,-126 455.2828,-122 339.7172,-122 339.7172,-86 482.2828,-86 482.2828,-122"/>
<text text-anchor="middle" x="411" y="-99.8" font-family="Times,serif" font-size="14.00" fill="#000000">CloukitTooltipModule</text>
</g>
<!-- CloukitTooltipModule&#45;&gt;DemoModule -->
<g id="edge6" class="edge">
<title>CloukitTooltipModule&#45;&gt;DemoModule</title>
<path fill="none" stroke="#000000" d="M411,-122.027C411,-138.3976 411,-160 411,-160 411,-160 586.0513,-160 586.0513,-160"/>
<polygon fill="#000000" stroke="#000000" points="586.0514,-163.5001 596.0513,-160 586.0513,-156.5001 586.0514,-163.5001"/>
</g>
<!-- CloukitDropoutModule -->
<g id="node8" class="node">
<title>CloukitDropoutModule</title>
<polygon fill="#8dd3c7" stroke="#000000" points="322.2162,-122 319.2162,-126 298.2162,-126 295.2162,-122 173.7838,-122 173.7838,-86 322.2162,-86 322.2162,-122"/>
<text text-anchor="middle" x="248" y="-99.8" font-family="Times,serif" font-size="14.00" fill="#000000">CloukitDropoutModule</text>
</g>
<!-- CloukitDropoutModule&#45;&gt;DemoModule -->
<g id="edge7" class="edge">
<title>CloukitDropoutModule&#45;&gt;DemoModule</title>
<path fill="none" stroke="#000000" d="M248,-122.1061C248,-141.3391 248,-169 248,-169 248,-169 586.1372,-169 586.1372,-169"/>
<polygon fill="#000000" stroke="#000000" points="586.1372,-172.5001 596.1372,-169 586.1371,-165.5001 586.1372,-172.5001"/>
</g>
<!-- CloukitStoryModule -->
<g id="node9" class="node">
<title>CloukitStoryModule</title>
<polygon fill="#8dd3c7" stroke="#000000" points="155.892,-122 152.892,-126 131.892,-126 128.892,-122 24.108,-122 24.108,-86 155.892,-86 155.892,-122"/>
<text text-anchor="middle" x="90" y="-99.8" font-family="Times,serif" font-size="14.00" fill="#000000">CloukitStoryModule</text>
</g>
<!-- CloukitStoryModule&#45;&gt;DemoModule -->
<g id="edge8" class="edge">
<title>CloukitStoryModule&#45;&gt;DemoModule</title>
<path fill="none" stroke="#000000" d="M90,-122.2921C90,-144.2057 90,-178 90,-178 90,-178 585.8515,-178 585.8515,-178"/>
<polygon fill="#000000" stroke="#000000" points="585.8516,-181.5001 595.8515,-178 585.8515,-174.5001 585.8516,-181.5001"/>
</g>
</g>
</svg>
