<?xml version="1.0" encoding="UTF-8" standalone="no"?>
<!DOCTYPE svg PUBLIC "-//W3C//DTD SVG 1.1//EN"
 "http://www.w3.org/Graphics/SVG/1.1/DTD/svg11.dtd">
<!-- Generated by graphviz version 2.40.1 (20161225.0304)
 -->
<!-- Title: dependencies Pages: 1 -->
<svg width="566pt" height="355pt"
 viewBox="0.00 0.00 566.00 355.00" xmlns="http://www.w3.org/2000/svg" xmlns:xlink="http://www.w3.org/1999/xlink">
<g id="graph0" class="graph" transform="scale(1 1) rotate(0) translate(4 351)">
<title>dependencies</title>
<polygon fill="#ffffff" stroke="transparent" points="-4,4 -4,-351 562,-351 562,4 -4,4"/>
<text text-anchor="start" x="258.0091" y="-42.4" font-family="sans-serif" font-weight="bold" font-size="14.00" fill="#000000">Legend</text>
<polygon fill="#ffffb3" stroke="transparent" points="45,-10 45,-30 65,-30 65,-10 45,-10"/>
<text text-anchor="start" x="68.629" y="-15.4" font-family="sans-serif" font-size="14.00" fill="#000000"> &#160;Declarations</text>
<polygon fill="#8dd3c7" stroke="transparent" points="158,-10 158,-30 178,-30 178,-10 158,-10"/>
<text text-anchor="start" x="181.7251" y="-15.4" font-family="sans-serif" font-size="14.00" fill="#000000"> &#160;Module</text>
<polygon fill="#80b1d3" stroke="transparent" points="244,-10 244,-30 264,-30 264,-10 244,-10"/>
<text text-anchor="start" x="267.7812" y="-15.4" font-family="sans-serif" font-size="14.00" fill="#000000"> &#160;Bootstrap</text>
<polygon fill="#fdb462" stroke="transparent" points="341,-10 341,-30 361,-30 361,-10 341,-10"/>
<text text-anchor="start" x="364.6732" y="-15.4" font-family="sans-serif" font-size="14.00" fill="#000000"> &#160;Providers</text>
<polygon fill="#fb8072" stroke="transparent" points="437,-10 437,-30 457,-30 457,-10 437,-10"/>
<text text-anchor="start" x="460.7258" y="-15.4" font-family="sans-serif" font-size="14.00" fill="#000000"> &#160;Exports</text>
<g id="clust1" class="cluster">
<title>cluster_CloukitTooltipModule</title>
<polygon fill="none" stroke="#000000" stroke-dasharray="1,5" points="8,-70 8,-271 194,-271 194,-70 8,-70"/>
</g>
<g id="clust3" class="cluster">
<title>cluster_CloukitTooltipModule_imports</title>
<polygon fill="none" stroke="#000000" points="47,-78 47,-130 175,-130 175,-78 47,-78"/>
</g>
<g id="clust4" class="cluster">
<title>cluster_CloukitTooltipModule_exports</title>
<polygon fill="none" stroke="#000000" points="16,-211 16,-263 186,-263 186,-211 16,-211"/>
</g>
<g id="clust7" class="cluster">
<title>cluster_DemoModule</title>
<polygon fill="none" stroke="#000000" stroke-dasharray="1,5" points="212,-138 212,-339 550,-339 550,-138 212,-138"/>
</g>
<g id="clust9" class="cluster">
<title>cluster_DemoModule_imports</title>
<polygon fill="none" stroke="#000000" points="220,-146 220,-198 542,-198 542,-146 220,-146"/>
</g>
<g id="clust10" class="cluster">
<title>cluster_DemoModule_exports</title>
<polygon fill="none" stroke="#000000" points="227,-279 227,-331 363,-331 363,-279 227,-279"/>
</g>
<!-- CommonModule -->
<g id="node1" class="node">
<title>CommonModule</title>
<polygon fill="#8dd3c7" stroke="#000000" points="166.6681,-122 163.6681,-126 142.6681,-126 139.6681,-122 55.3319,-122 55.3319,-86 166.6681,-86 166.6681,-122"/>
<text text-anchor="middle" x="111" y="-99.8" font-family="Times,serif" font-size="14.00" fill="#000000">CommonModule</text>
</g>
<!-- CloukitTooltipModule -->
<g id="node2" class="node">
<title>CloukitTooltipModule</title>
<polygon fill="#8dd3c7" stroke="#000000" points="172.2828,-190 169.2828,-194 148.2828,-194 145.2828,-190 29.7172,-190 29.7172,-154 172.2828,-154 172.2828,-190"/>
<text text-anchor="middle" x="101" y="-167.8" font-family="Times,serif" font-size="14.00" fill="#000000">CloukitTooltipModule</text>
</g>
<!-- CommonModule&#45;&gt;CloukitTooltipModule -->
<g id="edge1" class="edge">
<title>CommonModule&#45;&gt;CloukitTooltipModule</title>
<path fill="none" stroke="#000000" d="M111,-122.2228C111,-122.2228 111,-143.7269 111,-143.7269"/>
<polygon fill="#000000" stroke="#000000" points="107.5001,-143.7269 111,-153.7269 114.5001,-143.727 107.5001,-143.7269"/>
</g>
<!-- DemoModule -->
<g id="node6" class="node">
<title>DemoModule</title>
<polygon fill="#8dd3c7" stroke="#000000" points="341.7619,-255 338.7619,-259 317.7619,-259 314.7619,-255 248.2381,-255 248.2381,-219 341.7619,-219 341.7619,-255"/>
<text text-anchor="middle" x="295" y="-232.8" font-family="Times,serif" font-size="14.00" fill="#000000">DemoModule</text>
</g>
<!-- CommonModule&#45;&gt;DemoModule -->
<g id="edge3" class="edge">
<title>CommonModule&#45;&gt;DemoModule</title>
<path fill="none" stroke="#000000" d="M166.7769,-104C189.8854,-104 211.3973,-104 211.3973,-104 211.3973,-104 211.3973,-231 211.3973,-231 211.3973,-231 237.8234,-231 237.8234,-231"/>
<polygon fill="#000000" stroke="#000000" points="237.8235,-234.5001 247.8234,-231 237.8234,-227.5001 237.8235,-234.5001"/>
</g>
<!-- CloukitTooltipDirective  -->
<g id="node3" class="node">
<title>CloukitTooltipDirective </title>
<polygon fill="#fb8072" stroke="#000000" points="178.3157,-255 23.6843,-255 23.6843,-219 178.3157,-219 178.3157,-255"/>
<text text-anchor="middle" x="101" y="-232.8" font-family="Times,serif" font-size="14.00" fill="#000000">CloukitTooltipDirective </text>
</g>
<!-- CloukitTooltipModule&#45;&gt;CloukitTooltipDirective  -->
<g id="edge2" class="edge">
<title>CloukitTooltipModule&#45;&gt;CloukitTooltipDirective </title>
<path fill="none" stroke="#000000" stroke-dasharray="5,2" d="M101,-190.1061C101,-190.1061 101,-208.991 101,-208.991"/>
<polygon fill="#000000" stroke="#000000" points="97.5001,-208.9909 101,-218.991 104.5001,-208.991 97.5001,-208.9909"/>
</g>
<!-- CloukitTooltipModule&#45;&gt;DemoModule -->
<g id="edge5" class="edge">
<title>CloukitTooltipModule&#45;&gt;DemoModule</title>
<path fill="none" stroke="#000000" d="M172.6489,-172C185.5017,-172 194.9025,-172 194.9025,-172 194.9025,-172 194.9025,-243 194.9025,-243 194.9025,-243 238.1751,-243 238.1751,-243"/>
<polygon fill="#000000" stroke="#000000" points="238.1751,-246.5001 248.1751,-243 238.175,-239.5001 238.1751,-246.5001"/>
</g>
<!-- CloukitThemeModule -->
<g id="node4" class="node">
<title>CloukitThemeModule</title>
<polygon fill="#8dd3c7" stroke="#000000" points="534.4313,-190 531.4313,-194 510.4313,-194 507.4313,-190 393.5687,-190 393.5687,-154 534.4313,-154 534.4313,-190"/>
<text text-anchor="middle" x="464" y="-167.8" font-family="Times,serif" font-size="14.00" fill="#000000">CloukitThemeModule</text>
</g>
<!-- CloukitThemeModule&#45;&gt;DemoModule -->
<g id="edge4" class="edge">
<title>CloukitThemeModule&#45;&gt;DemoModule</title>
<path fill="none" stroke="#000000" d="M464,-190.1061C464,-209.3391 464,-237 464,-237 464,-237 352.0759,-237 352.0759,-237"/>
<polygon fill="#000000" stroke="#000000" points="352.076,-233.5001 342.0759,-237 352.0759,-240.5001 352.076,-233.5001"/>
</g>
<!-- CloukitDropoutModule -->
<g id="node5" class="node">
<title>CloukitDropoutModule</title>
<polygon fill="#8dd3c7" stroke="#000000" points="376.2162,-190 373.2162,-194 352.2162,-194 349.2162,-190 227.7838,-190 227.7838,-154 376.2162,-154 376.2162,-190"/>
<text text-anchor="middle" x="302" y="-167.8" font-family="Times,serif" font-size="14.00" fill="#000000">CloukitDropoutModule</text>
</g>
<!-- CloukitDropoutModule&#45;&gt;DemoModule -->
<g id="edge6" class="edge">
<title>CloukitDropoutModule&#45;&gt;DemoModule</title>
<path fill="none" stroke="#000000" d="M295,-190.1061C295,-190.1061 295,-208.991 295,-208.991"/>
<polygon fill="#000000" stroke="#000000" points="291.5001,-208.9909 295,-218.991 298.5001,-208.991 291.5001,-208.9909"/>
</g>
<!-- DemoComponent  -->
<g id="node7" class="node">
<title>DemoComponent </title>
<polygon fill="#fb8072" stroke="#000000" points="354.5442,-323 235.4558,-323 235.4558,-287 354.5442,-287 354.5442,-323"/>
<text text-anchor="middle" x="295" y="-300.8" font-family="Times,serif" font-size="14.00" fill="#000000">DemoComponent </text>
</g>
<!-- DemoModule&#45;&gt;DemoComponent  -->
<g id="edge7" class="edge">
<title>DemoModule&#45;&gt;DemoComponent </title>
<path fill="none" stroke="#000000" stroke-dasharray="5,2" d="M295,-255.2228C295,-255.2228 295,-276.7269 295,-276.7269"/>
<polygon fill="#000000" stroke="#000000" points="291.5001,-276.7269 295,-286.7269 298.5001,-276.727 291.5001,-276.7269"/>
</g>
</g>
</svg>
