<?xml version="1.0" encoding="UTF-8" standalone="no"?>
<!DOCTYPE svg PUBLIC "-//W3C//DTD SVG 1.1//EN"
 "http://www.w3.org/Graphics/SVG/1.1/DTD/svg11.dtd">
<!-- Generated by graphviz version 2.40.1 (20161225.0304)
 -->
<!-- Title: dependencies Pages: 1 -->
<svg width="504pt" height="352pt"
 viewBox="0.00 0.00 504.00 352.00" xmlns="http://www.w3.org/2000/svg" xmlns:xlink="http://www.w3.org/1999/xlink">
<g id="graph0" class="graph" transform="scale(1 1) rotate(0) translate(4 348)">
<title>dependencies</title>
<polygon fill="#ffffff" stroke="transparent" points="-4,4 -4,-348 500,-348 500,4 -4,4"/>
<text text-anchor="start" x="227.0091" y="-42.4" font-family="sans-serif" font-weight="bold" font-size="14.00" fill="#000000">Legend</text>
<polygon fill="#ffffb3" stroke="transparent" points="14,-10 14,-30 34,-30 34,-10 14,-10"/>
<text text-anchor="start" x="37.629" y="-15.4" font-family="sans-serif" font-size="14.00" fill="#000000"> &#160;Declarations</text>
<polygon fill="#8dd3c7" stroke="transparent" points="127,-10 127,-30 147,-30 147,-10 127,-10"/>
<text text-anchor="start" x="150.7251" y="-15.4" font-family="sans-serif" font-size="14.00" fill="#000000"> &#160;Module</text>
<polygon fill="#80b1d3" stroke="transparent" points="213,-10 213,-30 233,-30 233,-10 213,-10"/>
<text text-anchor="start" x="236.7812" y="-15.4" font-family="sans-serif" font-size="14.00" fill="#000000"> &#160;Bootstrap</text>
<polygon fill="#fdb462" stroke="transparent" points="310,-10 310,-30 330,-30 330,-10 310,-10"/>
<text text-anchor="start" x="333.6732" y="-15.4" font-family="sans-serif" font-size="14.00" fill="#000000"> &#160;Providers</text>
<polygon fill="#fb8072" stroke="transparent" points="406,-10 406,-30 426,-30 426,-10 406,-10"/>
<text text-anchor="start" x="429.7258" y="-15.4" font-family="sans-serif" font-size="14.00" fill="#000000"> &#160;Exports</text>
<g id="clust1" class="cluster">
<title>cluster_CloukitTooltipModule</title>
<polygon fill="none" stroke="#000000" stroke-dasharray="1,5" points="13,-70 13,-268 323,-268 323,-70 13,-70"/>
</g>
<g id="clust3" class="cluster">
<title>cluster_CloukitTooltipModule_imports</title>
<polygon fill="none" stroke="#000000" points="21,-78 21,-130 315,-130 315,-78 21,-78"/>
</g>
<g id="clust4" class="cluster">
<title>cluster_CloukitTooltipModule_exports</title>
<polygon fill="none" stroke="#000000" points="145,-208 145,-260 315,-260 315,-208 145,-208"/>
</g>
<g id="clust7" class="cluster">
<title>cluster_DemoModule</title>
<polygon fill="none" stroke="#000000" stroke-dasharray="1,5" points="331,-208 331,-336 483,-336 483,-208 331,-208"/>
</g>
<g id="clust10" class="cluster">
<title>cluster_DemoModule_exports</title>
<polygon fill="none" stroke="#000000" points="339,-276 339,-328 475,-328 475,-276 339,-276"/>
</g>
<!-- CommonModule -->
<g id="node1" class="node">
<title>CommonModule</title>
<polygon fill="#8dd3c7" stroke="#000000" points="140.6681,-122 137.6681,-126 116.6681,-126 113.6681,-122 29.3319,-122 29.3319,-86 140.6681,-86 140.6681,-122"/>
<text text-anchor="middle" x="85" y="-99.8" font-family="Times,serif" font-size="14.00" fill="#000000">CommonModule</text>
</g>
<!-- CloukitTooltipModule -->
<g id="node3" class="node">
<title>CloukitTooltipModule</title>
<polygon fill="#8dd3c7" stroke="#000000" points="302.2828,-187 299.2828,-191 278.2828,-191 275.2828,-187 159.7172,-187 159.7172,-151 302.2828,-151 302.2828,-187"/>
<text text-anchor="middle" x="231" y="-164.8" font-family="Times,serif" font-size="14.00" fill="#000000">CloukitTooltipModule</text>
</g>
<!-- CommonModule&#45;&gt;CloukitTooltipModule -->
<g id="edge1" class="edge">
<title>CommonModule&#45;&gt;CloukitTooltipModule</title>
<path fill="none" stroke="#000000" d="M103.6113,-122.1061C103.6113,-141.3391 103.6113,-169 103.6113,-169 103.6113,-169 149.4858,-169 149.4858,-169"/>
<polygon fill="#000000" stroke="#000000" points="149.4859,-172.5001 159.4858,-169 149.4858,-165.5001 149.4859,-172.5001"/>
</g>
<!-- DemoModule -->
<g id="node5" class="node">
<title>DemoModule</title>
<polygon fill="#8dd3c7" stroke="#000000" points="432.7619,-252 429.7619,-256 408.7619,-256 405.7619,-252 339.2381,-252 339.2381,-216 432.7619,-216 432.7619,-252"/>
<text text-anchor="middle" x="386" y="-229.8" font-family="Times,serif" font-size="14.00" fill="#000000">DemoModule</text>
</g>
<!-- CommonModule&#45;&gt;DemoModule -->
<g id="edge4" class="edge">
<title>CommonModule&#45;&gt;DemoModule</title>
<path fill="none" stroke="#000000" d="M66.3887,-122.0449C66.3887,-129.749 66.3887,-137 66.3887,-137 66.3887,-137 386,-137 386,-137 386,-137 386,-205.755 386,-205.755"/>
<polygon fill="#000000" stroke="#000000" points="382.5001,-205.755 386,-215.755 389.5001,-205.7551 382.5001,-205.755"/>
</g>
<!-- CloukitDropoutModule -->
<g id="node2" class="node">
<title>CloukitDropoutModule</title>
<polygon fill="#8dd3c7" stroke="#000000" points="307.2162,-122 304.2162,-126 283.2162,-126 280.2162,-122 158.7838,-122 158.7838,-86 307.2162,-86 307.2162,-122"/>
<text text-anchor="middle" x="233" y="-99.8" font-family="Times,serif" font-size="14.00" fill="#000000">CloukitDropoutModule</text>
</g>
<!-- CloukitDropoutModule&#45;&gt;CloukitTooltipModule -->
<g id="edge2" class="edge">
<title>CloukitDropoutModule&#45;&gt;CloukitTooltipModule</title>
<path fill="none" stroke="#000000" d="M231,-122.1061C231,-122.1061 231,-140.991 231,-140.991"/>
<polygon fill="#000000" stroke="#000000" points="227.5001,-140.9909 231,-150.991 234.5001,-140.991 227.5001,-140.9909"/>
</g>
<!-- CloukitDropoutModule&#45;&gt;DemoModule -->
<g id="edge6" class="edge">
<title>CloukitDropoutModule&#45;&gt;DemoModule</title>
<path fill="none" stroke="#000000" d="M307.3152,-104C355.5352,-104 409.4404,-104 409.4404,-104 409.4404,-104 409.4404,-205.9241 409.4404,-205.9241"/>
<polygon fill="#000000" stroke="#000000" points="405.9405,-205.924 409.4404,-215.9241 412.9405,-205.9241 405.9405,-205.924"/>
</g>
<!-- CloukitTooltipDirective  -->
<g id="node4" class="node">
<title>CloukitTooltipDirective </title>
<polygon fill="#fb8072" stroke="#000000" points="307.3157,-252 152.6843,-252 152.6843,-216 307.3157,-216 307.3157,-252"/>
<text text-anchor="middle" x="230" y="-229.8" font-family="Times,serif" font-size="14.00" fill="#000000">CloukitTooltipDirective </text>
</g>
<!-- CloukitTooltipModule&#45;&gt;CloukitTooltipDirective  -->
<g id="edge3" class="edge">
<title>CloukitTooltipModule&#45;&gt;CloukitTooltipDirective </title>
<path fill="none" stroke="#000000" stroke-dasharray="5,2" d="M231,-187.1061C231,-187.1061 231,-205.991 231,-205.991"/>
<polygon fill="#000000" stroke="#000000" points="227.5001,-205.9909 231,-215.991 234.5001,-205.991 227.5001,-205.9909"/>
</g>
<!-- CloukitTooltipModule&#45;&gt;DemoModule -->
<g id="edge5" class="edge">
<title>CloukitTooltipModule&#45;&gt;DemoModule</title>
<path fill="none" stroke="#000000" d="M302.5546,-169C333.4111,-169 362.5596,-169 362.5596,-169 362.5596,-169 362.5596,-205.8939 362.5596,-205.8939"/>
<polygon fill="#000000" stroke="#000000" points="359.0597,-205.8938 362.5596,-215.8939 366.0597,-205.8939 359.0597,-205.8938"/>
</g>
<!-- DemoComponent  -->
<g id="node6" class="node">
<title>DemoComponent </title>
<polygon fill="#fb8072" stroke="#000000" points="466.5442,-320 347.4558,-320 347.4558,-284 466.5442,-284 466.5442,-320"/>
<text text-anchor="middle" x="407" y="-297.8" font-family="Times,serif" font-size="14.00" fill="#000000">DemoComponent </text>
</g>
<!-- DemoModule&#45;&gt;DemoComponent  -->
<g id="edge7" class="edge">
<title>DemoModule&#45;&gt;DemoComponent </title>
<path fill="none" stroke="#000000" stroke-dasharray="5,2" d="M390.1794,-252.2228C390.1794,-252.2228 390.1794,-273.7269 390.1794,-273.7269"/>
<polygon fill="#000000" stroke="#000000" points="386.6794,-273.7269 390.1794,-283.7269 393.6794,-273.727 386.6794,-273.7269"/>
</g>
</g>
</svg>
