<?xml version="1.0" encoding="UTF-8" standalone="no"?>
<!DOCTYPE svg PUBLIC "-//W3C//DTD SVG 1.1//EN"
 "http://www.w3.org/Graphics/SVG/1.1/DTD/svg11.dtd">
<!-- Generated by graphviz version 2.40.1 (20161225.0304)
 -->
<!-- Title: dependencies Pages: 1 -->
<svg width="1230pt" height="284pt"
 viewBox="0.00 0.00 1230.00 284.00" xmlns="http://www.w3.org/2000/svg" xmlns:xlink="http://www.w3.org/1999/xlink">
<g id="graph0" class="graph" transform="scale(1 1) rotate(0) translate(4 280)">
<title>dependencies</title>
<polygon fill="#ffffff" stroke="transparent" points="-4,4 -4,-280 1226,-280 1226,4 -4,4"/>
<text text-anchor="start" x="590.0091" y="-42.4" font-family="sans-serif" font-weight="bold" font-size="14.00" fill="#000000">Legend</text>
<polygon fill="#ffffb3" stroke="transparent" points="377,-10 377,-30 397,-30 397,-10 377,-10"/>
<text text-anchor="start" x="400.629" y="-15.4" font-family="sans-serif" font-size="14.00" fill="#000000"> &#160;Declarations</text>
<polygon fill="#8dd3c7" stroke="transparent" points="490,-10 490,-30 510,-30 510,-10 490,-10"/>
<text text-anchor="start" x="513.7251" y="-15.4" font-family="sans-serif" font-size="14.00" fill="#000000"> &#160;Module</text>
<polygon fill="#80b1d3" stroke="transparent" points="576,-10 576,-30 596,-30 596,-10 576,-10"/>
<text text-anchor="start" x="599.7812" y="-15.4" font-family="sans-serif" font-size="14.00" fill="#000000"> &#160;Bootstrap</text>
<polygon fill="#fdb462" stroke="transparent" points="673,-10 673,-30 693,-30 693,-10 673,-10"/>
<text text-anchor="start" x="696.6732" y="-15.4" font-family="sans-serif" font-size="14.00" fill="#000000"> &#160;Providers</text>
<polygon fill="#fb8072" stroke="transparent" points="769,-10 769,-30 789,-30 789,-10 769,-10"/>
<text text-anchor="start" x="792.7258" y="-15.4" font-family="sans-serif" font-size="14.00" fill="#000000"> &#160;Exports</text>
<g id="clust1" class="cluster">
<title>cluster_DemoModule</title>
<polygon fill="none" stroke="#000000" stroke-dasharray="1,5" points="8,-70 8,-268 1214,-268 1214,-70 8,-70"/>
</g>
<g id="clust2" class="cluster">
<title>cluster_DemoModule_declarations</title>
<polygon fill="none" stroke="#000000" points="786,-78 786,-130 1206,-130 1206,-78 786,-78"/>
</g>
<g id="clust6" class="cluster">
<title>cluster_DemoModule_imports</title>
<polygon fill="none" stroke="#000000" points="16,-78 16,-130 778,-130 778,-78 16,-78"/>
</g>
<g id="clust7" class="cluster">
<title>cluster_DemoModule_exports</title>
<polygon fill="none" stroke="#000000" points="574,-208 574,-260 710,-260 710,-208 574,-208"/>
</g>
<!-- DemoComponent -->
<g id="node1" class="node">
<title>DemoComponent</title>
<polygon fill="#ffffb3" stroke="#000000" points="1197.5451,-122 1082.4549,-122 1082.4549,-86 1197.5451,-86 1197.5451,-122"/>
<text text-anchor="middle" x="1140" y="-99.8" font-family="Times,serif" font-size="14.00" fill="#000000">DemoComponent</text>
</g>
<!-- DemoModule -->
<g id="node4" class="node">
<title>DemoModule</title>
<polygon fill="#8dd3c7" stroke="#000000" points="688.7619,-187 685.7619,-191 664.7619,-191 661.7619,-187 595.2381,-187 595.2381,-151 688.7619,-151 688.7619,-187"/>
<text text-anchor="middle" x="642" y="-164.8" font-family="Times,serif" font-size="14.00" fill="#000000">DemoModule</text>
</g>
<!-- DemoComponent&#45;&gt;DemoModule -->
<g id="edge1" class="edge">
<title>DemoComponent&#45;&gt;DemoModule</title>
<path fill="none" stroke="#000000" d="M1140,-122.2921C1140,-144.2057 1140,-178 1140,-178 1140,-178 698.8506,-178 698.8506,-178"/>
<polygon fill="#000000" stroke="#000000" points="698.8507,-174.5001 688.8506,-178 698.8506,-181.5001 698.8507,-174.5001"/>
</g>
<!-- Story00Component -->
<g id="node2" class="node">
<title>Story00Component</title>
<polygon fill="#ffffb3" stroke="#000000" points="1063.6666,-122 938.3334,-122 938.3334,-86 1063.6666,-86 1063.6666,-122"/>
<text text-anchor="middle" x="1001" y="-99.8" font-family="Times,serif" font-size="14.00" fill="#000000">Story00Component</text>
</g>
<!-- Story00Component&#45;&gt;DemoModule -->
<g id="edge2" class="edge">
<title>Story00Component&#45;&gt;DemoModule</title>
<path fill="none" stroke="#000000" d="M1001,-122.1061C1001,-141.3391 1001,-169 1001,-169 1001,-169 698.933,-169 698.933,-169"/>
<polygon fill="#000000" stroke="#000000" points="698.933,-165.5001 688.933,-169 698.9329,-172.5001 698.933,-165.5001"/>
</g>
<!-- Story01Component -->
<g id="node3" class="node">
<title>Story01Component</title>
<polygon fill="#ffffb3" stroke="#000000" points="919.6666,-122 794.3334,-122 794.3334,-86 919.6666,-86 919.6666,-122"/>
<text text-anchor="middle" x="857" y="-99.8" font-family="Times,serif" font-size="14.00" fill="#000000">Story01Component</text>
</g>
<!-- Story01Component&#45;&gt;DemoModule -->
<g id="edge3" class="edge">
<title>Story01Component&#45;&gt;DemoModule</title>
<path fill="none" stroke="#000000" d="M857,-122.027C857,-138.3976 857,-160 857,-160 857,-160 698.917,-160 698.917,-160"/>
<polygon fill="#000000" stroke="#000000" points="698.917,-156.5001 688.917,-160 698.917,-163.5001 698.917,-156.5001"/>
</g>
<!-- DemoComponent  -->
<g id="node10" class="node">
<title>DemoComponent </title>
<polygon fill="#fb8072" stroke="#000000" points="701.5442,-252 582.4558,-252 582.4558,-216 701.5442,-216 701.5442,-252"/>
<text text-anchor="middle" x="642" y="-229.8" font-family="Times,serif" font-size="14.00" fill="#000000">DemoComponent </text>
</g>
<!-- DemoModule&#45;&gt;DemoComponent  -->
<g id="edge9" class="edge">
<title>DemoModule&#45;&gt;DemoComponent </title>
<path fill="none" stroke="#000000" stroke-dasharray="5,2" d="M642,-187.1061C642,-187.1061 642,-205.991 642,-205.991"/>
<polygon fill="#000000" stroke="#000000" points="638.5001,-205.9909 642,-215.991 645.5001,-205.991 638.5001,-205.9909"/>
</g>
<!-- CommonModule -->
<g id="node5" class="node">
<title>CommonModule</title>
<polygon fill="#8dd3c7" stroke="#000000" points="769.6681,-122 766.6681,-126 745.6681,-126 742.6681,-122 658.3319,-122 658.3319,-86 769.6681,-86 769.6681,-122"/>
<text text-anchor="middle" x="714" y="-99.8" font-family="Times,serif" font-size="14.00" fill="#000000">CommonModule</text>
</g>
<!-- CommonModule&#45;&gt;DemoModule -->
<g id="edge4" class="edge">
<title>CommonModule&#45;&gt;DemoModule</title>
<path fill="none" stroke="#000000" d="M673.5235,-122.1061C673.5235,-122.1061 673.5235,-140.991 673.5235,-140.991"/>
<polygon fill="#000000" stroke="#000000" points="670.0236,-140.9909 673.5235,-150.991 677.0236,-140.991 670.0236,-140.9909"/>
</g>
<!-- CloukitThemeModule -->
<g id="node6" class="node">
<title>CloukitThemeModule</title>
<polygon fill="#8dd3c7" stroke="#000000" points="640.4313,-122 637.4313,-126 616.4313,-126 613.4313,-122 499.5687,-122 499.5687,-86 640.4313,-86 640.4313,-122"/>
<text text-anchor="middle" x="570" y="-99.8" font-family="Times,serif" font-size="14.00" fill="#000000">CloukitThemeModule</text>
</g>
<!-- CloukitThemeModule&#45;&gt;DemoModule -->
<g id="edge5" class="edge">
<title>CloukitThemeModule&#45;&gt;DemoModule</title>
<path fill="none" stroke="#000000" d="M617.6673,-122.1061C617.6673,-122.1061 617.6673,-140.991 617.6673,-140.991"/>
<polygon fill="#000000" stroke="#000000" points="614.1673,-140.9909 617.6673,-150.991 621.1673,-140.991 614.1673,-140.9909"/>
</g>
<!-- CloukitDropoutModule -->
<g id="node7" class="node">
<title>CloukitDropoutModule</title>
<polygon fill="#8dd3c7" stroke="#000000" points="482.2162,-122 479.2162,-126 458.2162,-126 455.2162,-122 333.7838,-122 333.7838,-86 482.2162,-86 482.2162,-122"/>
<text text-anchor="middle" x="408" y="-99.8" font-family="Times,serif" font-size="14.00" fill="#000000">CloukitDropoutModule</text>
</g>
<!-- CloukitDropoutModule&#45;&gt;DemoModule -->
<g id="edge6" class="edge">
<title>CloukitDropoutModule&#45;&gt;DemoModule</title>
<path fill="none" stroke="#000000" d="M408,-122.027C408,-138.3976 408,-160 408,-160 408,-160 585.209,-160 585.209,-160"/>
<polygon fill="#000000" stroke="#000000" points="585.209,-163.5001 595.209,-160 585.209,-156.5001 585.209,-163.5001"/>
</g>
<!-- CloukitTooltipModule -->
<g id="node8" class="node">
<title>CloukitTooltipModule</title>
<polygon fill="#8dd3c7" stroke="#000000" points="316.2828,-122 313.2828,-126 292.2828,-126 289.2828,-122 173.7172,-122 173.7172,-86 316.2828,-86 316.2828,-122"/>
<text text-anchor="middle" x="245" y="-99.8" font-family="Times,serif" font-size="14.00" fill="#000000">CloukitTooltipModule</text>
</g>
<!-- CloukitTooltipModule&#45;&gt;DemoModule -->
<g id="edge7" class="edge">
<title>CloukitTooltipModule&#45;&gt;DemoModule</title>
<path fill="none" stroke="#000000" d="M245,-122.1061C245,-141.3391 245,-169 245,-169 245,-169 584.8999,-169 584.8999,-169"/>
<polygon fill="#000000" stroke="#000000" points="584.8999,-172.5001 594.8999,-169 584.8999,-165.5001 584.8999,-172.5001"/>
</g>
<!-- CloukitStoryModule -->
<g id="node9" class="node">
<title>CloukitStoryModule</title>
<polygon fill="#8dd3c7" stroke="#000000" points="155.892,-122 152.892,-126 131.892,-126 128.892,-122 24.108,-122 24.108,-86 155.892,-86 155.892,-122"/>
<text text-anchor="middle" x="90" y="-99.8" font-family="Times,serif" font-size="14.00" fill="#000000">CloukitStoryModule</text>
</g>
<!-- CloukitStoryModule&#45;&gt;DemoModule -->
<g id="edge8" class="edge">
<title>CloukitStoryModule&#45;&gt;DemoModule</title>
<path fill="none" stroke="#000000" d="M90,-122.2921C90,-144.2057 90,-178 90,-178 90,-178 584.9368,-178 584.9368,-178"/>
<polygon fill="#000000" stroke="#000000" points="584.9368,-181.5001 594.9368,-178 584.9368,-174.5001 584.9368,-181.5001"/>
</g>
</g>
</svg>
